HIERARCHY
ROOT hip
{
  OFFSET 0 0 0
  CHANNELS 6 Xposition Yposition Zposition Zrotation Yrotation Xrotation
  JOINT abdomen
  {
    OFFSET 0 20.6881 -0.73152
    CHANNELS 3 Zrotation Xrotation Yrotation
    JOINT chest
    {
      OFFSET 0 11.7043 -0.48768
      CHANNELS 3 Zrotation Xrotation Yrotation
      JOINT neck
      {
        OFFSET 0 22.1894 -2.19456
        CHANNELS 3 Zrotation Xrotation Yrotation
        JOINT head
        {
          OFFSET -0.24384 7.07133 1.2192
          CHANNELS 3 Zrotation Xrotation Yrotation
          JOINT leftEye
          {
            OFFSET 4.14528 8.04674 8.04672
            CHANNELS 3 Zrotation Xrotation Yrotation
            End Site
            {
              OFFSET 1 0 0
            }
          }
          JOINT rightEye
          {
            OFFSET -3.6576 8.04674 8.04672
            CHANNELS 3 Zrotation Xrotation Yrotation
            End Site
            {
              OFFSET 1 0 0
            }
          }
        }
      }
      JOINT rCollar
      {
        OFFSET -2.68224 19.2634 -4.8768
        CHANNELS 3 Zrotation Xrotation Yrotation
        JOINT rShldr
        {
          OFFSET -8.77824 -1.95073 1.46304
          CHANNELS 3 Zrotation Xrotation Yrotation
          JOINT rForeArm
          {
            OFFSET -28.1742 -1.7115 0.48768
            CHANNELS 3 Zrotation Xrotation Yrotation
            JOINT rHand
            {
              OFFSET -22.5879 0.773209 7.07136
              CHANNELS 3 Zrotation Xrotation Yrotation
              JOINT rThumb1
              {
                OFFSET -1.2192 -0.487915 3.41376
                CHANNELS 3 Zrotation Xrotation Yrotation
                JOINT rThumb2
                {
                  OFFSET -3.37035 -0.52449 3.41376
                  CHANNELS 3 Zrotation Xrotation Yrotation
                  End Site
                  {
                    OFFSET -1.78271 -1.18214 1.43049
                  }
                }
              }
              JOINT rIndex1
              {
                OFFSET -7.75947 0.938293 5.60832
                CHANNELS 3 Zrotation Xrotation Yrotation
                JOINT rIndex2
                {
                  OFFSET -2.54057 -0.884171 1.56538
                  CHANNELS 3 Zrotation Xrotation Yrotation
                  End Site
                  {
                    OFFSET -1.62519 -0.234802 1.16502
                  }
                }
              }
              JOINT rMid1
              {
                OFFSET -8.24714 1.18213 3.41376
                CHANNELS 3 Zrotation Xrotation Yrotation
                JOINT rMid2
                {
                  OFFSET -3.10165 -0.590103 1.0647
                  CHANNELS 3 Zrotation Xrotation Yrotation
                  End Site
                  {
                    OFFSET -2.48547 -0.328903 0.83742
                  }
                }
              }
              JOINT rRing1
              {
                OFFSET -8.82822 0.546677 1.51678
                CHANNELS 3 Zrotation Xrotation Yrotation
                JOINT rRing2
                {
                  OFFSET -2.60934 -0.819778 -0.0198488
                  CHANNELS 3 Zrotation Xrotation Yrotation
                  End Site
                  {
                    OFFSET -2.33842 -0.294052 0.168128
                  }
                }
              }
              JOINT rPinky1
              {
                OFFSET -8.27202 -0.0477905 -0.4584
                CHANNELS 3 Zrotation Xrotation Yrotation
                JOINT rPinky2
                {
                  OFFSET -1.82734 -0.647385 -0.700984
                  CHANNELS 3 Zrotation Xrotation Yrotation
                  End Site
                  {
                    OFFSET -1.69225 -0.51767 -0.607171
                  }
                }
              }
            }
          }
        }
      }
      JOINT lCollar
      {
        OFFSET 2.68224 19.2634 -4.8768
        CHANNELS 3 Zrotation Xrotation Yrotation
        JOINT lShldr
        {
          OFFSET 8.77824 -1.95073 1.46304
          CHANNELS 3 Zrotation Xrotation Yrotation
          JOINT lForeArm
          {
            OFFSET 28.1742 -1.7115 0.48768
            CHANNELS 3 Zrotation Xrotation Yrotation
            JOINT lHand
            {
              OFFSET 22.5879 0.773209 7.07136
              CHANNELS 3 Zrotation Xrotation Yrotation
              JOINT lThumb1
              {
                OFFSET 1.2192 -0.487915 3.41376
                CHANNELS 3 Zrotation Xrotation Yrotation
                JOINT lThumb2
                {
                  OFFSET 3.37035 -0.52449 3.41376
                  CHANNELS 3 Zrotation Xrotation Yrotation
                  End Site
                  {
                    OFFSET 1.78271 -1.18214 1.43049
                  }
                }
              }
              JOINT lIndex1
              {
                OFFSET 7.75947 0.938293 5.60832
                CHANNELS 3 Zrotation Xrotation Yrotation
                JOINT lIndex2
                {
                  OFFSET 2.54057 -0.884171 1.56538
                  CHANNELS 3 Zrotation Xrotation Yrotation
                  End Site
                  {
                    OFFSET 1.62519 -0.234802 1.16502
                  }
                }
              }
              JOINT lMid1
              {
                OFFSET 8.24714 1.18213 3.41376
                CHANNELS 3 Zrotation Xrotation Yrotation
                JOINT lMid2
                {
                  OFFSET 3.10165 -0.590103 1.0647
                  CHANNELS 3 Zrotation Xrotation Yrotation
                  End Site
                  {
                    OFFSET 2.48547 -0.328903 0.83742
                  }
                }
              }
              JOINT lRing1
              {
                OFFSET 8.82822 0.546677 1.51678
                CHANNELS 3 Zrotation Xrotation Yrotation
                JOINT lRing2
                {
                  OFFSET 2.60934 -0.819778 -0.0198488
                  CHANNELS 3 Zrotation Xrotation Yrotation
                  End Site
                  {
                    OFFSET 2.33842 -0.294052 0.168128
                  }
                }
              }
              JOINT lPinky1
              {
                OFFSET 8.27202 -0.0477905 -0.4584
                CHANNELS 3 Zrotation Xrotation Yrotation
                JOINT lPinky2
                {
                  OFFSET 1.82734 -0.647385 -0.700984
                  CHANNELS 3 Zrotation Xrotation Yrotation
                  End Site
                  {
                    OFFSET 1.69225 -0.51767 -0.607171
                  }
                }
              }
            }
          }
        }
      }
    }
  }
  JOINT rButtock
  {
    OFFSET -8.77824 4.35084 1.2192
    CHANNELS 3 Zrotation Xrotation Yrotation
    JOINT rThigh
    {
      OFFSET 0 -1.70687 -2.19456
      CHANNELS 3 Zrotation Xrotation Yrotation
      JOINT rShin
      {
        OFFSET 0 -36.8199 0.73152
        CHANNELS 3 Zrotation Xrotation Yrotation
        JOINT rFoot
        {
          OFFSET 0.73152 -45.1104 -5.12064
          CHANNELS 3 Zrotation Xrotation Yrotation
          End Site
          {
            OFFSET -1.1221 -3.69964 12.103
          }
        }
      }
    }
  }
  JOINT lButtock
  {
    OFFSET 8.77824 4.35084 1.2192
    CHANNELS 3 Zrotation Xrotation Yrotation
    JOINT lThigh
    {
      OFFSET 0 -1.70687 -2.19456
      CHANNELS 3 Zrotation Xrotation Yrotation
      JOINT lShin
      {
        OFFSET 0 -36.8199 0.73152
        CHANNELS 3 Zrotation Xrotation Yrotation
        JOINT lFoot
        {
          OFFSET -0.73152 -45.1104 -5.12064
          CHANNELS 3 Zrotation Xrotation Yrotation
          End Site
          {
            OFFSET 1.1221 -3.69964 12.103
          }
        }
      }
    }
  }
}
MOTION
Frames:	8
Frame Time:	0.00833333
0.0 0.0 0.0 0.0 0.0 0.0 0.0 0.0 0.0 0.0 0.0 0.0 0.0 0.0 0.0 0.0 0.0 0.0 0.0 0.0 0.0 0.0 0.0 0.0 0.0 0.0 0.0 0.0 0.0 0.0 0.0 0.0 0.0 0.0 0.0 0.0 0.0 0.0 0.0 0.0 0.0 0.0 0.0 0.0 0.0 0.0 0.0 0.0 0.0 0.0 0.0 0.0 0.0 0.0 0.0 0.0 0.0 0.0 0.0 0.0 0.0 0.0 0.0 0.0 0.0 0.0 0.0 0.0 0.0 0.0 0.0 0.0 0.0 0.0 0.0 0.0 0.0 0.0 0.0 0.0 0.0 0.0 0.0 0.0 0.0 0.0 0.0 0.0 0.0 0.0 0.0 0.0 0.0 0.0 0.0 0.0 0.0 0.0 0.0 0.0 0.0 0.0 0.0 0.0 0.0 0.0 0.0 0.0 0.0 0.0 0.0 0.0 0.0 0.0 0.0 0.0 0.0 0.0 0.0 0.0 0.0 0.0 0.0 0.0 0.0 0.0 0.0 0.0 0.0 0.0 0.0 0.0
-121.43159999999999 61.29599999999999 119.2129 -177.326952 -0.326712 -174.965992 -0.133304 -0.026688 0.0 -0.724074 -2.946101 2.044222 -8.281298 10.953975 -89.184307 11.761784 9.003687 87.164685 -0.00062 0.0 -0.002139 -0.000883 0.0 -0.002097 -0.048891 0.292393 0.065111 -2.693405 50.228089 1.790868 -23.407351 11.68605 -5.234275 26.731756 -56.029118 15.008982 -171.653031 -9.336417 89.949735 -171.442492 -8.972519 90.339207 5.228974 -8.933181 -2.663069 -170.814784 -27.687466 108.614742 -89.835873 60.702355 81.262609 -179.698085 -48.725826 141.173741 -0.007165 3.559193 1.118507 -49.987463 77.896503 62.953567 -0.289168 -0.753359 -0.270104 -159.497093 55.55662 -150.082876 155.810002 -5.555429 -162.266601 -22.568201 -4.007123 -16.923671 117.971145 -62.174266 139.026174 -30.711606 -58.711544 -18.516857 -6.463913 -6.452569 0.634285 138.534672 -41.111328 -122.429655 157.32768 -28.217289 -122.491041 4.07931 28.341945 1.747294 10.974777 25.790348 -7.638581 -4.654959 -4.00159 0.486118 132.482857 54.103762 -155.535251 -7.049548 21.103963 4.289258 150.577415 31.034837 146.36157 -1.008903 -2.325601 2.675942 0.000215 0.000692 -0.000276 -2.67302 -13.943367 -0.696114 11.214179 29.745545 152.16669 27.212086 19.408417 -170.232943 0.000281 8e-05 -0.000361 1.613601 -18.909527 -175.032069 12.097965 -31.1075 94.101558 8.277753 67.403524 79.840985
-121.42660000000001 61.2464 119.21390000000001 -177.326105 -0.279699 -174.972934 1.230795 -4.794743 -171.622011 1.455312 1.130113 176.052448 -6.375526 14.68398 -118.940514 10.213684 14.934696 114.716572 -0.002365 -0.0 0.000755 0.003359 0.0 0.000521 -132.775289 52.5521 136.717267 -148.205282 -20.44626 176.937594 174.344998 -41.868518 115.620006 176.383483 -8.983105 143.756678 71.83049 -48.264101 25.792173 -12.704143 -38.807073 -29.820657 -46.131941 39.629364 36.250648 -161.982898 -7.276711 111.994936 -169.089556 -33.247337 145.375302 -83.336507 63.988145 75.209728 -0.020826 -1.725135 -0.542621 11.332549 -15.838251 -1.952645 -21.771498 -34.925512 -20.907409 -114.876693 -41.958732 -114.351797 158.464774 -30.011838 -166.912153 27.298235 55.17643 -53.212409 -90.734579 -82.429446 -33.706607 -176.064081 -8.281723 -143.911252 169.320042 -7.000565 -89.922738 121.630534 12.154875 -57.337831 -159.642773 -69.973465 -102.39886 54.849388 55.064304 -44.08822 36.035765 51.722779 -29.833402 163.57397 -6.219063 -143.403766 145.121658 1.97551 179.748682 -11.922515 48.576533 3.335122 142.727613 4.7377 139.624835 148.228929 14.111436 142.258438 0.0 0.001014 -0.001011 -10.902016 -26.598292 -157.407163 -47.350195 -32.944515 -37.486361 -109.103652 51.179416 -154.53746 0.006637 -0.00079 0.006637 8.814373 -26.820555 18.966528 -2.837308 56.410822 152.882884 114.919543 51.922945 147.84269
-121.4206 61.21450000000001 119.21790000000001 -177.314047 -0.260395 -174.96711 1.790247 -4.836249 180.0 0.901689 4.10245 -173.56002 -9.076252 8.456969 -84.060195 11.744434 10.553789 77.980705 0.002241 0.0 0.001509 0.001781 -0.0 -0.004093 -9.651235 34.836325 11.198649 -148.942464 -55.365739 -156.437072 -155.312545 86.529824 -168.049273 -7.646422 9.19328 -1.246869 -171.603908 -9.285984 89.950282 -30.35951 -31.096547 3.943309 -173.601522 -52.693056 119.890333 -156.56704 -12.718758 118.741182 78.538325 -80.918507 49.688678 -5.22105 21.25449 4.608701 -72.349837 72.974969 90.217988 -86.895167 -82.37199 -104.097327 -143.938643 8.264825 -140.7203 -153.302065 29.74485 -145.09 157.37116 -17.927676 -164.690502 74.202557 62.940185 -101.298982 -163.005979 -80.310155 -97.198773 -176.022238 -12.534656 -143.539601 173.770468 -11.440051 -89.891232 128.387711 13.435978 -62.803854 145.522384 -6.585272 -118.765647 57.074592 56.495917 -40.484556 -0.541852 -1.589887 0.294196 0.797863 11.298883 -1.878925 0.000219 -0.060841 0.019149 -4.618998 40.27131 -7.35213 59.991787 -51.221979 58.614705 -2.500509 -2.387124 1.481606 -0.002157 9e-05 -0.003235 -23.451987 -30.092849 -40.866534 25.803011 68.846865 110.190148 98.448911 50.857703 164.685118 0.00609 -0.000522 0.003045 20.23254 -33.264371 11.772935 -38.269089 53.350566 43.462132 -86.542886 -26.922066 -10.964288
-121.41059999999999 61.152499999999996 119.21889999999999 -177.280969 -0.229718 -174.970998 0.120999 -1.823573 74.447962 -8.35581 -3.866615 -67.160598 10.285303 4.480029 86.304562 -7.534513 6.66492 -93.216993 -0.000389 -0.0 0.000481 0.004483 -0.0 -0.005992 4.240115 -44.742779 -8.6467 -96.444844 76.259078 85.552769 -5.326098 -25.559174 36.529924 -4.992484 -2.663608 -2.335584 6.463179 -6.452876 -0.63532 -110.862654 7.352993 100.351624 -151.354578 -17.158139 121.132791 12.496724 -2.598457 -10.173592 -153.32202 13.629086 138.862111 -21.897468 45.933356 18.02242 -145.119511 0.184872 -179.187808 -66.988588 87.684488 80.240523 -155.355794 49.792534 -149.603778 -162.692273 55.716192 -147.07611 142.974132 39.431944 -147.390759 141.879252 13.847126 -177.051022 -136.953164 -77.026214 -65.866551 -179.903198 -3.194784 -143.403853 -1.177049 -1.166191 0.16873 125.3823 -17.719333 -112.348987 50.386694 40.826646 -40.024218 -20.770315 -21.964251 3.128631 169.09031 -33.247389 -145.374281 114.071429 58.989339 -104.321133 0.00106 -0.060787 0.019481 156.466519 -42.784199 -177.031398 154.55224 46.645024 149.146828 150.761996 19.642726 143.588069 0.0 -0.000509 0.000307 -35.262661 -32.820576 180.0 -84.253928 -27.039321 -147.228966 68.332757 68.859971 -177.104428 -0.001515 0.002338 -0.000757 30.070882 -35.731367 19.188693 -78.203836 54.886374 -36.978899 128.008967 -40.666752 -173.218058
-121.4046 61.11 119.2019 -177.28592 -0.211467 -174.984076 2.662242 -0.079922 0.114723 -0.7298 -11.593053 8.022703 9.99453 9.596383 115.585318 -8.317563 11.446242 -123.712166 0.001885 -0.0 -0.001475 -0.00405 0.0 -0.000543 -152.128812 14.113013 157.556247 17.103224 35.670804 23.050389 -90.442003 -32.721737 -108.009577 43.580183 -71.789667 28.260916 -5.762562 5.575699 1.158147 19.9471 -26.51191 -9.669695 -151.353193 -17.15819 121.13361 -155.411639 -3.175048 118.964086 -4.680926 12.53654 2.931502 7.834395 -14.006308 -1.318699 -0.00114 0.022601 0.007572 6.912734 29.712179 4.676745 -7.144295 -15.707416 -6.727888 -9.75351 -26.027832 -11.388749 142.97392 39.431748 -147.390321 -31.505123 5.515302 0.034393 56.483239 -28.641216 42.50673 -29.575851 -64.431974 -16.023624 171.63736 -9.318952 -89.950047 48.472135 -14.376025 -9.182694 -1.339389 -2.205296 0.737243 -157.964423 -52.465888 -92.218251 159.364971 -2.685927 -142.596059 5.092378 21.253113 -4.819807 145.123497 1.974945 179.747815 -11.156236 15.60247 7.169281 -6.762545 20.646884 -6.031806 146.245576 6.927306 142.422731 0.003296 0.000167 0.001648 -38.619838 -30.646457 -57.458623 40.709342 78.468351 9.050931 -179.883293 -6.472279 67.636037 -0.004163 0.001285 -0.004163 34.837506 -36.051921 -0.0 -87.906677 31.764522 -25.218398 45.861498 -1.295424 114.972726
-121.4006 61.063900000000004 119.1859 -177.282101 -0.187662 -174.989923 2.635506 -4.852245 180.0 0.728194 6.752773 -172.108524 10.021747 7.625464 102.198877 -8.752075 9.056266 -111.504215 0.000965 -0.0 -0.000815 0.000965 -0.0 -0.000815 -157.744667 -21.565399 165.365777 38.582062 -29.730699 29.935026 26.147772 40.524049 -90.562936 -175.006502 8.846689 142.095805 -1.584034 1.556057 0.264404 -10.920075 11.509388 10.287684 -46.20852 39.653694 36.317284 -178.998457 -31.822314 109.643869 -0.338818 0.982124 0.188829 -13.369255 36.411651 10.634402 -0.008735 -0.872133 -0.273803 -149.914727 38.865539 164.83891 -146.226864 15.469643 -142.748875 -24.2387 -39.105822 -25.58215 44.92351 -86.287442 66.531722 177.027652 -2.253172 -148.75482 51.334708 21.643425 6.634979 -103.207738 -75.194815 -85.062661 172.746203 -10.423483 -89.929925 152.930223 3.924213 -79.937647 -60.463126 -70.522995 -15.712185 0.537371 25.446948 -2.195627 0.570041 1.648584 -0.32151 -11.369778 -24.937407 1.562822 72.757953 -72.142751 89.772462 -14.597838 14.93772 2.681542 43.363324 -47.546673 42.161799 151.678915 29.467809 146.656403 -179.987446 75.749322 -0.010329 142.0519 30.180458 -122.808322 -93.651311 -18.910936 -67.699683 -134.795372 33.005048 -129.630114 -0.001588 -0.001409 -0.000794 33.911829 -36.091488 22.179486 -70.509682 57.159999 44.868825 -174.849987 -7.839921 -44.426463
-121.3966 61.0187 119.1689 -177.281067 -0.167091 -174.997928 4.193402 -4.14114 -134.564573 6.760827 3.198392 141.947148 9.535976 5.863613 89.430527 -8.673259 6.793035 -99.88013 -0.000866 -0.0 0.002608 -0.000671 -0.0 0.002259 2.45946 -18.21636 -3.669426 175.706423 0.003521 178.648627 18.819559 36.021792 -83.426387 -177.257543 3.020046 142.811766 -5.432485 5.265496 1.077467 54.860951 -69.627048 -7.880033 52.73779 -67.700505 9.657702 -173.949497 -40.188354 109.866788 -125.645438 49.84125 115.275789 3.335013 0.212164 0.273679 0.004922 1.771409 0.556333 11.325891 -24.849703 -2.987554 4.051012 11.638985 3.676268 -159.047846 53.230694 -149.944535 -2.185925 -15.733617 3.201778 4.855974 -85.544641 -5.052289 154.540925 49.778576 165.087915 2.623334 -7.502236 2.21303 171.604159 -9.285876 -89.950304 28.96436 -32.39142 -3.769081 10.570715 15.01375 -6.864566 4.134979 18.118795 -4.280454 -2.099406 -6.305493 1.08204 154.100415 20.056693 -138.720142 145.123248 2.056203 179.77364 -10.049983 -0.124092 9.010024 -1.48282 4.003841 -1.358745 10.090341 -25.985834 11.31133 179.995718 75.749844 0.00293 142.888366 33.112003 0.0 68.343932 67.05975 18.690751 -178.403559 49.157567 85.976799 0.001803 -0.000203 0.001803 31.689717 -35.872119 20.423719 -88.045533 63.892061 -122.652162 -49.22194 8.216231 -137.712054
